name analog
datacolumns 19
datarows 23
range 0.0 0.011
endheader
time	ground_force_vx	ground_force_vy	ground_force_vz	ground_force_px	ground_force_py	ground_force_pz	l_ground_force_vx	l_ground_force_vy	l_ground_force_vz	l_ground_force_px	l_ground_force_py	l_ground_force_pz	ground_torque_x	ground_torque_y	ground_torque_z	l_ground_torque_x	l_ground_torque_y	l_ground_torque_z
0.0	-0.0	-0.0	-0.0	1.758265256881714	67.67589569091797	-430.1731567382813	-2.014471530914306	-42.48273468017578	-397.4363708496094	-35.31017303466797	16.194534301757812	76.35501861572266	-0.0	-0.0	-0.0	64829.55859375	-19340.591796875	1263.951416015625
0.0005	-0.0	-0.0	-0.0	1.198539972305298	67.03765106201172	-429.0164794921875	-1.646803379058838	-41.890167236328125	-398.6866760253906	-35.221797943115234	15.629734992980955	74.85420989990234	-0.0	-0.0	-0.0	65466.23828125	-20051.798828125	1463.295654296875
0.001	-0.0	-0.0	-0.0	1.1597366333007812	66.05745697021484	-427.7477416992188	-1.3177989721298218	-42.28047943115234	-397.93157958984375	-35.6552734375	16.02755355834961	75.60636901855469	-0.0	-0.0	-0.0	64998.56640625	-20756.1484375	1565.2630615234375
0.0015	-0.0	-0.0	-0.0	0.9049921631813048	65.44647216796875	-425.0755920410156	-0.9128145575523376	-42.937137603759766	-394.4401550292969	-35.28459167480469	15.707196235656738	76.25764465332031	-0.0	-0.0	-0.0	64889.81640625	-21017.060546875	2055.9091796875
0.002	-0.0	-0.0	-0.0	0.2547824680805206	64.24945831298828	-423.8639221191406	-1.2922149896621704	-43.74574661254883	-388.5048828125	-35.36177444458008	16.16912269592285	75.3539810180664	-0.0	-0.0	-0.0	64166.0234375	-21205.638671875	2263.52978515625
0.0025	-0.0	-0.0	-0.0	0.2927866578102112	62.63307571411133	-420.9397583007813	-0.6081976890563965	-45.20798110961914	-382.6170043945313	-35.15718078613281	16.1174373626709	75.40449523925781	-0.0	-0.0	-0.0	62913.00390625	-21268.896484375	2539.192138671875
0.003	-0.0	-0.0	-0.0	-0.0511742495000362	61.7290267944336	-419.5777587890625	-0.0887107849121093	-46.26847076416016	-374.34075927734375	-35.15718078613281	16.078853607177734	75.25420379638672	-0.0	-0.0	-0.0	61532.46875	-21358.640625	2891.1982421875
0.0035	-0.0	-0.0	-0.0	-0.4970748424530029	61.00335311889648	-417.8121643066406	0.7224088907241821	-47.89534378051758	-367.8055114746094	-35.31060791015625	16.374473571777344	75.20471954345703	-0.0	-0.0	-0.0	60637.12890625	-21274.01171875	3259.9013671875
0.004	-0.0	-0.0	-0.0	-0.1402682662010193	60.01017761230469	-418.2665100097656	1.1912946701049805	-48.67788314819336	-360.92291259765625	-35.745784759521484	16.168458938598633	74.85250091552734	-0.0	-0.0	-0.0	59543.8828125	-21615.447265625	3480.384033203125
0.0045000000000000005	-0.0	-0.0	-0.0	-0.229530468583107	59.513427734375	-418.5697326660156	2.116391181945801	-49.49798202514648	-356.2343444824219	-35.32340621948242	16.117326736450195	75.6538314819336	-0.0	-0.0	-0.0	58897.51171875	-21582.12890625	4027.477783203125
0.005	-0.0	-0.0	-0.0	-0.2290704846382141	58.96637344360352	-415.339599609375	3.193286895751953	-49.90175628662109	-353.3414306640625	-35.207786560058594	16.00187110900879	75.90492248535156	-0.0	-0.0	-0.0	58238.58984375	-22238.048828125	4392.5439453125
0.0055	-0.0	-0.0	-0.0	-0.4586769342422485	58.15085983276367	-413.3704528808594	4.612960815429688	-50.02768707275391	-351.0482788085937	-35.33609771728516	15.770055770874023	75.05427551269531	-0.0	-0.0	-0.0	57923.09375	-22458.900390625	4711.36669921875
0.006	-0.0	-0.0	-0.0	-0.726272463798523	57.87078857421875	-411.7579650878906	5.47413969039917	-49.90175628662109	-347.702392578125	-35.27178955078125	16.219831466674805	75.8550033569336	-0.0	-0.0	-0.0	58036.9140625	-23043.625	5051.17333984375
0.006500000000000001	-0.0	-0.0	-0.0	-0.6370359659194946	57.80797958374024	-410.6488342285156	6.120047092437744	-49.46014404296875	-348.10418701171875	-35.5150146484375	16.090330123901367	77.31423950195312	-0.0	-0.0	-0.0	57862.15625	-23713.98828125	5242.32470703125
0.007	-0.0	-0.0	-0.0	-0.9046295285224916	57.54069900512695	-408.6788024902344	7.134340763092041	-49.41039276123047	-348.2025146484375	-35.23412322998047	16.284503936767578	76.26213073730469	-0.0	-0.0	-0.0	58009.3046875	-24455.732421875	5429.39794921875
0.0075	-0.0	-0.0	-0.0	-0.8921051025390625	56.865196228027344	-407.7673645019531	8.124027252197266	-48.91781234741211	-348.2512512207031	-35.400604248046875	16.092018127441406	76.66276550292969	-0.0	-0.0	-0.0	58568.01171875	-25115.271484375	5548.85791015625
0.008	-0.0	-0.0	-0.0	-0.8133849501609802	56.63713073730469	-407.9306335449219	8.642239570617676	-48.41266250610352	-349.9544677734375	-35.13227844238281	16.451921463012695	75.05491638183594	-0.0	-0.0	-0.0	58578.36328125	-25608.515625	5816.31494140625
0.0085	-0.0	-0.0	-0.0	-1.1326491832733154	56.58762741088867	-406.1658020019531	9.440524101257324	-47.76969528198242	-350.7510681152344	-35.24663543701172	15.679683685302734	75.103759765625	-0.0	-0.0	-0.0	58712.3046875	-26620.3359375	5990.20654296875
0.009000000000000001	-0.0	-0.0	-0.0	-1.4546455144882202	55.61737060546875	-405.970703125	10.238807678222656	-47.21520233154297	-350.59686279296875	-35.33609771728516	16.01459503173828	75.50325775146484	-0.0	-0.0	-0.0	59409.26171875	-27616.48828125	6262.6650390625
0.0095	-0.0	-0.0	-0.0	-1.5536822080612185	55.887393951416016	-402.2125549316406	11.39199161529541	-46.93800354003906	-351.8384704589844	-35.60744094848633	16.104564666748047	75.81731414794922	-0.0	-0.0	-0.0	59497.6015625	-28258.5625	6340.1591796875
0.01	-0.0	-0.0	-0.0	-1.799441695213318	55.42679214477539	-402.0163879394531	12.165677070617676	-46.55777740478516	-353.8460998535156	-35.33609771728516	15.79423713684082	77.22216796875	-0.0	-0.0	-0.0	60251.87109375	-29296.32421875	6582.24365234375
0.0105	-0.0	-0.0	-0.0	-1.7350428104400637	55.19944381713867	-398.22845458984375	13.508562088012695	-46.93830490112305	-355.6407470703125	-35.20979690551758	15.76938533782959	74.6427230834961	-0.0	-0.0	-0.0	60765.859375	-29901.7578125	6887.9423828125
0.011	-0.0	-0.0	-0.0	-2.193467617034912	54.86421585083008	-397.7777099609375	14.205960273742676	-46.950592041015625	-357.59149169921875	-35.42555236816406	15.765618324279783	76.60370635986328	-0.0	-0.0	-0.0	60982.00390625	-31010.044921875	7104.248046875
